<svg xmlns="http://www.w3.org/2000/svg" viewBox="0 0 48 48" width="48" height="48">
  <rect width="48" height="48" rx="10" fill="#e6007a"/>
  <path d="M24 6C16.27 6 10 12.27 10 20c0 4.42 1.79 8.42 4.69 11.31l1.41-1.41C13.79 27.59 12 23.97 12 20c0-6.63 5.37-12 12-12s12 5.37 12 12c0 3.97-1.79 7.59-4.1 9.9l1.41 1.41C36.21 28.42 38 24.42 38 20c0-7.73-6.27-14-14-14zm0 6c-4.42 0-8 3.58-8 8 0 2.73 1.07 5.2 2.81 6.99l1.41-1.41A5.957 5.957 0 0 1 18 20c0-3.31 2.69-6 6-6s6 2.69 6 6c0 2.05-.78 3.92-2.22 5.58l1.41 1.41C30.93 25.2 32 22.73 32 20c0-4.42-3.58-8-8-8zm0 6c-1.1 0-2 .9-2 2 0 1.86-.32 4.12-1.09 6.05l1.81.76c.9-2.24 1.28-4.76 1.28-6.81 0-1.1.9-2 2-2s2 .9 2 2c0 3.72-.78 7.09-2.07 9.61l1.77.9C29.08 31.48 30 27.82 30 24c0-.72-.08-1.42-.22-2.1A3.99 3.99 0 0 0 24 18z" fill="white" opacity="0.95"/>
</svg>
